<svg
  class={className}
  viewBox="0 0 32 32"
  xmlns="http://www.w3.org/2000/svg"
>
  <path
    fill="currentColor"
    d="M19.11 17.028c-.286-.143-1.689-.833-1.95-.926-.26-.093-.448-.143-.637.143-.19.286-.733.927-.897 1.115-.163.19-.327.214-.613.072-.286-.143-1.207-.445-2.303-1.42-.851-.757-1.426-1.695-1.597-1.981-.17-.286-.018-.44.125-.582.13-.129.286-.335.429-.502.143-.167.19-.286.286-.476.095-.19.048-.357-.024-.5-.071-.143-.637-1.535-.873-2.104-.23-.553-.464-.478-.637-.478-.163 0-.35-.024-.537-.024-.19 0-.5.071-.762.334-.262.262-1 .974-1 2.372s1.025 2.749 1.168 2.944c.143.19 2.024 3.095 4.905 4.339.686.297 1.22.475 1.636.607.687.218 1.313.187 1.807.114.552-.081 1.689-.69 1.928-1.356.238-.667.238-1.24.167-1.356-.072-.119-.26-.19-.545-.333z"
  />
  <path
    fill="currentColor"
    d="M16 2.933c-7.256 0-13.067 5.811-13.067 13.067 0 2.311.603 4.544 1.75 6.529l-1.806 6.614 6.77-1.78c1.938 1.056 4.132 1.644 6.352 1.644 7.256 0 13.067-5.811 13.067-13.067s-5.811-13.067-13.067-13.067zm0 24.8c-1.946 0-3.858-.507-5.545-1.467l-.397-.234-4.016 1.056 1.068-3.918-.26-.407c-1.104-1.73-1.684-3.72-1.684-5.734 0-6.296 5.117-11.412 11.412-11.412s11.412 5.116 11.412 11.412-5.116 11.412-11.412 11.412z"
  />
</svg>